<?xml version="1.0" encoding="utf-8"?>
<!-- Generator: Adobe Illustrator 26.5.0, SVG Export Plug-In . SVG Version: 6.00 Build 0)  -->
<svg version="1.1" id="Layer_1" xmlns="http://www.w3.org/2000/svg" xmlns:xlink="http://www.w3.org/1999/xlink" x="0px" y="0px"
	 viewBox="0 0 541.24 541.24" style="enable-background:new 0 0 541.24 541.24;" xml:space="preserve">
<style type="text/css">
	.st0{fill:#010101;}
</style>
<g>
	<path class="st0" d="M270.62,0C120.57,0,0,121.91,0,270.62s120.57,270.62,270.62,270.62s270.62-120.57,270.62-270.62
		S419.33,0,270.62,0z M270.62,487.66c-119.23,0-217.04-97.8-217.04-217.04S150.04,53.58,270.62,53.58s215.7,97.8,215.7,217.04
		S389.86,487.66,270.62,487.66L270.62,487.66z"/>
	<path class="st0" d="M369.76,178.18l-2.68-2.68c-9.38-9.38-25.45-9.38-34.83,0l-60.29,60.29l-60.29-60.29
		c-9.38-9.38-25.45-9.38-34.83,0l-2.68,2.68c-9.38,9.38-9.38,25.45,0,34.83l60.28,60.29l-60.29,60.29c-9.38,9.38-9.38,25.45,0,34.83
		l2.68,2.68c9.38,9.38,25.45,9.38,34.83,0l60.29-60.29l60.29,60.29c9.38,9.38,25.45,9.38,34.83,0l2.68-2.68
		c9.38-9.38,9.38-25.45,0-34.83l-60.29-60.29l60.29-60.29C379.13,203.64,379.13,187.56,369.76,178.18L369.76,178.18z"/>
</g>
</svg>
