<?xml version="1.0" encoding="utf-8"?>
<!-- Generator: Adobe Illustrator 26.5.0, SVG Export Plug-In . SVG Version: 6.00 Build 0)  -->
<svg version="1.1" id="Layer_1" xmlns="http://www.w3.org/2000/svg" xmlns:xlink="http://www.w3.org/1999/xlink" x="0px" y="0px"
	 viewBox="0 0 119.95 19.27" style="enable-background:new 0 0 119.95 19.27;" xml:space="preserve">
<style type="text/css">
	.st0{fill:#FFFFFF;}
</style>
<g>
	<path class="st0" d="M6.85,19.27c-1.42,0-2.64-0.27-3.67-0.81c-1.03-0.54-1.81-1.33-2.36-2.35S0,13.85,0,12.42
		c0-1.37,0.28-2.57,0.83-3.6c0.55-1.03,1.33-1.83,2.34-2.4c1.01-0.57,2.2-0.86,3.57-0.86c1.01,0,1.92,0.16,2.73,0.47
		c0.81,0.31,1.51,0.77,2.09,1.36c0.58,0.59,1.02,1.31,1.33,2.15c0.31,0.84,0.46,1.79,0.46,2.85v1.09H1.47v-2.62h9.63l-2.24,0.55
		c0-0.54-0.08-0.99-0.24-1.36c-0.16-0.37-0.39-0.65-0.7-0.84C7.62,9.02,7.24,8.92,6.78,8.92c-0.46,0-0.84,0.1-1.15,0.29
		c-0.31,0.19-0.54,0.48-0.7,0.84c-0.16,0.37-0.24,0.82-0.24,1.36v1.9c0,0.52,0.09,0.98,0.28,1.37c0.19,0.39,0.45,0.69,0.79,0.9
		c0.34,0.21,0.74,0.32,1.19,0.32c0.33,0,0.62-0.05,0.89-0.14c0.27-0.09,0.49-0.22,0.68-0.4c0.19-0.17,0.33-0.38,0.43-0.63h4.35
		c-0.15,0.92-0.5,1.72-1.05,2.4c-0.55,0.68-1.28,1.2-2.19,1.57C9.15,19.08,8.08,19.27,6.85,19.27z"/>
	<path class="st0" d="M22.6,5.73v3.47h-8.75V5.73H22.6z M15.53,2.57h4.78v12.18c0,0.28,0.07,0.49,0.21,0.62
		c0.14,0.14,0.37,0.21,0.69,0.21c0.14,0,0.31-0.02,0.51-0.05c0.19-0.03,0.33-0.06,0.42-0.1l0.69,3.38
		c-0.55,0.15-1.04,0.26-1.49,0.32c-0.44,0.06-0.88,0.1-1.31,0.1c-1.49,0-2.61-0.34-3.37-1.02c-0.76-0.68-1.14-1.68-1.14-3.01V2.57z"
		/>
	<path class="st0" d="M23.98,19.03V5.73h4.78v13.3H23.98z M26.36,4.38c-0.65,0-1.21-0.21-1.67-0.64C24.23,3.31,24,2.79,24,2.19
		c0-0.61,0.23-1.13,0.69-1.55C25.15,0.21,25.71,0,26.36,0c0.65,0,1.21,0.21,1.67,0.64c0.46,0.42,0.69,0.94,0.69,1.54
		c0,0.61-0.23,1.13-0.69,1.56C27.56,4.16,27.01,4.38,26.36,4.38z"/>
	<path class="st0" d="M32.83,6.23l3.08,9.72h0.12l3.1-9.72h2.99l-4.41,12.8h-3.49l-4.42-12.8H32.83z"/>
	<path class="st0" d="M43.08,19.03V6.23h8.62v2.23h-5.93v3.01h5.48v2.19h-5.48v3.14h5.94v2.23H43.08z"/>
	<path class="st0" d="M63.98,6.23v12.8h-2.34l-5.56-8.05h-0.11v8.05h-2.7V6.23h2.37l5.52,8.05h0.11V6.23H63.98z"/>
	<path class="st0" d="M65.14,8.46V6.23h10.51v2.23h-3.92v10.57h-2.67V8.46H65.14z"/>
	<path class="st0" d="M84.71,6.23h2.71v8.31c0,0.93-0.22,1.75-0.67,2.45c-0.44,0.7-1.06,1.25-1.86,1.64
		c-0.8,0.39-1.72,0.58-2.78,0.58c-1.06,0-1.99-0.19-2.78-0.58c-0.8-0.39-1.41-0.93-1.86-1.64c-0.44-0.7-0.66-1.52-0.66-2.45V6.23
		h2.7v8.08c0,0.49,0.11,0.92,0.33,1.3c0.22,0.38,0.52,0.68,0.91,0.89c0.39,0.21,0.84,0.32,1.37,0.32c0.53,0,0.98-0.11,1.37-0.32
		c0.39-0.21,0.69-0.51,0.91-0.89c0.21-0.38,0.32-0.81,0.32-1.3V6.23z"/>
	<path class="st0" d="M89.07,19.03V6.23h5.04c0.97,0,1.79,0.17,2.48,0.52c0.68,0.34,1.21,0.83,1.57,1.46
		c0.36,0.63,0.55,1.36,0.55,2.21c0,0.85-0.18,1.58-0.55,2.19c-0.37,0.61-0.9,1.08-1.59,1.4c-0.7,0.32-1.54,0.49-2.52,0.49h-3.38
		v-2.17h2.94c0.52,0,0.95-0.07,1.29-0.21c0.34-0.14,0.6-0.35,0.76-0.64c0.17-0.28,0.25-0.63,0.25-1.06c0-0.43-0.08-0.79-0.25-1.08
		c-0.17-0.29-0.43-0.51-0.77-0.66c-0.34-0.15-0.78-0.23-1.3-0.23h-1.83v10.58H89.07z M96.17,19.03l-3.12-5.82h2.92l3.19,5.82H96.17z
		"/>
	<path class="st0" d="M100.05,19.03V6.23h8.62v2.23h-5.93v3.01h5.48v2.19h-5.48v3.14h5.94v2.23H100.05z"/>
	<path class="st0" d="M114.98,19.21c-1.03,0-1.93-0.16-2.69-0.47c-0.76-0.31-1.36-0.78-1.79-1.41c-0.43-0.62-0.65-1.4-0.67-2.32
		h2.61c0.03,0.42,0.16,0.78,0.38,1.07c0.22,0.29,0.51,0.51,0.88,0.65c0.37,0.14,0.79,0.21,1.26,0.21c0.46,0,0.86-0.07,1.2-0.2
		c0.34-0.13,0.6-0.32,0.79-0.55c0.19-0.24,0.28-0.51,0.28-0.83c0-0.29-0.08-0.53-0.25-0.72c-0.17-0.19-0.42-0.36-0.74-0.5
		c-0.32-0.14-0.72-0.26-1.18-0.37l-1.4-0.34c-1.08-0.26-1.93-0.67-2.55-1.23c-0.62-0.56-0.94-1.32-0.94-2.26
		c0-0.77,0.21-1.45,0.63-2.03c0.42-0.58,1-1.03,1.73-1.36c0.73-0.32,1.56-0.49,2.5-0.49c0.95,0,1.78,0.16,2.49,0.49
		c0.71,0.33,1.26,0.78,1.66,1.36c0.4,0.58,0.6,1.25,0.61,2h-2.6c-0.05-0.5-0.26-0.89-0.64-1.17c-0.38-0.28-0.89-0.42-1.54-0.42
		c-0.44,0-0.81,0.06-1.11,0.18c-0.31,0.12-0.54,0.29-0.7,0.51c-0.16,0.22-0.24,0.47-0.24,0.75c0,0.3,0.09,0.55,0.27,0.75
		c0.18,0.2,0.43,0.37,0.73,0.5c0.31,0.13,0.64,0.24,1.01,0.32l1.14,0.28c0.56,0.13,1.07,0.29,1.54,0.5
		c0.47,0.21,0.88,0.47,1.22,0.77c0.35,0.3,0.61,0.66,0.8,1.07c0.19,0.41,0.28,0.88,0.28,1.41c0,0.78-0.2,1.46-0.59,2.04
		c-0.39,0.58-0.96,1.02-1.7,1.33C116.92,19.05,116.03,19.21,114.98,19.21z"/>
</g>
</svg>
