<?xml version="1.0" encoding="utf-8"?>
<!-- Generator: Adobe Illustrator 26.5.0, SVG Export Plug-In . SVG Version: 6.00 Build 0)  -->
<svg version="1.1" id="Layer_1" xmlns="http://www.w3.org/2000/svg" xmlns:xlink="http://www.w3.org/1999/xlink" x="0px" y="0px"
	 viewBox="0 0 560 154.56" style="enable-background:new 0 0 560 154.56;" xml:space="preserve">
<style type="text/css">
	.st0{fill:#FFFFFF;}
</style>
<path class="st0" d="M404.32,77.28c0,42.56,34.72,77.28,77.28,77.28c42.56,0,78.4-34.72,78.4-77.28S525.28,0,482.72,0
	C440.16,0,404.32,34.72,404.32,77.28z M515.2,77.28c0,17.92-14.56,32.48-32.48,32.48s-33.6-14.56-33.6-32.48
	c0-17.92,14.56-32.48,32.48-32.48C499.52,44.8,515.2,59.36,515.2,77.28z"/>
<path class="st0" d="M353.92,77.28C353.92,34.72,319.2,0,276.64,0c-42.56,0-77.28,34.72-77.28,77.28
	c0,42.56,34.72,77.28,77.28,77.28C319.2,154.56,353.92,119.84,353.92,77.28L353.92,77.28z M243.04,77.28
	c0-17.92,14.56-32.48,32.48-32.48S308,59.36,308,77.28s-14.56,32.48-32.48,32.48C257.6,109.76,243.04,95.2,243.04,77.28z"/>
<path class="st0" d="M155.68,77.28C155.68,34.72,120.96,0,78.4,0C35.84,0,0,34.72,0,77.28c0,42.56,34.72,77.28,77.28,77.28
	C119.84,154.56,155.68,119.84,155.68,77.28z M44.8,77.28c0-17.92,14.56-32.48,32.48-32.48s32.48,14.56,32.48,32.48
	s-14.56,32.48-32.48,32.48S44.8,95.2,44.8,77.28z"/>
</svg>
